<svg width="387" height="122" viewBox="0 0 387 122" fill="none" xmlns="http://www.w3.org/2000/svg">
<path d="M108.4 73.2999C104.2 71.8999 89.2998 67.9999 79.0998 79.7999C76.9998 71.2999 69.1998 65.4999 60.4998 65.6999C51.7998 65.3999 43.9998 71.2999 41.8998 79.7999C31.7998 68.1999 17.2998 71.6999 12.7998 73.1999C12.9998 76.9999 14.2998 80.6999 16.5998 83.7999C29.5998 101.9 47.9998 108.5 60.4998 108.7C60.4998 108.7 60.5998 108.7 60.6998 108.7H60.7998C60.8998 108.7 60.9998 108.7 61.0998 108.7C73.5998 108.5 91.9998 101.9 104.9 83.7999C106.9 80.7999 108.2 77.0999 108.4 73.2999Z" fill="white"/>
<path d="M60.6 0C94.1 0 121.2 27.1 121.2 60.6C121.2 94.1 94.1 121.2 60.6 121.2C27.1 121.2 0 94.1 0 60.6C0 27.1 27.2 0 60.6 0Z" fill="#CF1324"/>
<path d="M25 31.5002C28.1 27.9002 32 24.9002 36.2 22.7002C28.2 13.4002 21.8 8.8002 19 7.7002C16.6 15.2002 19.4 26.9002 22.1 35.1002C23 33.9002 24 32.7002 25 31.5002Z" fill="#EA5D0C"/>
<path d="M96.0004 31.5002C96.9004 32.5002 97.7004 33.5002 98.5004 34.6002C101.1 26.4002 103.8 15.0002 101.4 7.7002C98.6004 8.8002 92.3004 13.3002 84.4004 22.5002C88.8004 24.7002 92.8004 27.8002 96.0004 31.5002Z" fill="#EA5D0C"/>
<path d="M96.0002 31.5C92.7002 27.8 88.8002 24.7 84.4002 22.5C92.3002 13.4 98.6002 8.80002 101.4 7.70002C103.8 15 101.1 26.4 98.5002 34.6C97.7002 33.5 96.9002 32.5 96.0002 31.5ZM25.0002 31.5C24.0002 32.7 23.0002 33.9 22.1002 35.2C19.4002 27 16.6002 15.2 19.0002 7.80002C21.8002 8.90002 28.2002 13.5 36.2002 22.8C32.0002 24.9 28.2002 27.9 25.0002 31.5ZM108.2 68.7C106.7 58.6 104.4 49.9 100.9 42.7C103.8 35.8 105.8 28.5 106.8 21.1C107.5 15.2 107.3 9.10003 105 4.10003C104.5 3.00003 103.3 2.40003 102 2.60003C100 3.00003 96.4002 4.30002 91.6002 8.20002C86.6002 12.3 82.1002 17 78.2002 22.2C72.6002 20.5 66.7002 19.6 60.8002 19.6C60.7002 19.6 60.6002 19.6 60.5002 19.6C60.4002 19.6 60.3002 19.6 60.2002 19.6C54.1002 19.5 48.1002 20.5 42.3002 22.3C38.3002 17.1 33.8002 12.3 28.7002 8.10003C23.8002 4.20003 20.3002 2.90002 18.3002 2.50002C17.1002 2.30002 15.9002 2.90002 15.3002 4.00002C13.0002 9.00002 12.8002 15 13.5002 20.9C14.6002 28.6 16.7002 36.1 19.7002 43.2C16.4002 50.3 14.2002 58.8 12.7002 68.6C12.5002 70.1 12.4002 71.6 12.5002 73.1C17.0002 71.6 31.6002 68.1 41.6002 79.7C43.7002 71.2 51.5002 65.4 60.2002 65.6C63.3002 65.5 66.4002 66.2 69.2002 67.6C74.0002 70.1 77.5002 74.5 78.8002 79.7C89.0002 67.9 103.9 71.7 108.1 73.2C108.5 71.8 108.4 70.2 108.2 68.7Z" fill="#F28F3C"/>
<path d="M73.8996 90.9998C73.3996 91.9998 73.0996 92.9998 73.0996 94.0998C73.0996 94.3998 72.7996 94.6998 72.3996 94.6998H71.6996L70.0996 98.8998C70.0996 98.9998 69.8996 99.0998 69.7996 99.0998C69.6996 99.0998 69.6996 99.0998 69.5996 98.9998C69.2996 98.5998 68.9996 98.2998 68.7996 97.8998C68.6996 97.7998 68.6996 97.6998 68.6996 97.5998V92.7998C65.9996 93.1998 63.1996 93.3998 60.4996 93.2998H60.2996C57.5996 93.2998 54.7996 93.0998 52.0996 92.6998V97.4998C52.0996 97.5998 52.0996 97.6998 51.9996 97.7998C51.7996 98.1998 51.4996 98.5998 51.1996 98.8998C51.0996 98.9998 50.8996 98.9998 50.7996 98.8998L50.6996 98.7998L49.0996 94.5998H48.3996C48.0996 94.5998 47.7996 94.3998 47.6996 93.9998C47.6996 92.8998 47.3996 91.8998 46.8996 90.8998C46.7996 90.6998 46.8996 90.4998 47.0996 90.3998H47.1996C48.4996 90.3998 51.2996 90.2998 51.8996 90.3998H56.7996C57.2996 89.5998 57.9996 89.0998 58.7996 88.7998V85.4998C52.8996 84.7998 52.1996 79.3998 52.2996 76.1998C52.2996 74.8998 53.3996 73.7998 54.6996 73.7998H65.6996C66.9996 73.7998 68.0996 74.7998 68.0996 76.1998C68.1996 79.3998 67.4996 84.6998 61.5996 85.4998V88.7998C62.3996 89.0998 63.1996 89.6998 63.5996 90.3998H68.4996C69.0996 90.3998 71.8996 90.3998 73.1996 90.3998C73.3996 90.3998 73.5996 90.5998 73.5996 90.7998C73.8996 90.8998 73.8996 90.8998 73.8996 90.9998Z" fill="#22263F"/>
<path d="M73.8998 90.9999C73.3998 91.9999 73.0998 92.9999 73.0998 94.0999C73.0998 94.3999 72.7998 94.6999 72.3998 94.6999H71.6998L70.0998 98.8999C70.0998 98.9999 69.8998 99.0999 69.7998 99.0999C69.6998 99.0999 69.6998 99.0999 69.5998 98.9999C69.2998 98.5999 68.9998 98.2999 68.7998 97.8999C68.6998 97.7999 68.6998 97.6999 68.6998 97.5999V92.7999C65.9998 93.1999 63.1998 93.3999 60.4998 93.3999H60.2998C57.5998 93.3999 54.7998 93.1999 52.0998 92.7999V97.5999C52.0998 97.6999 52.0998 97.7999 51.9998 97.8999C51.7998 98.2999 51.4998 98.6999 51.1998 98.9999C51.0998 99.0999 50.8998 99.0999 50.7998 98.9999L50.6998 98.8999L49.0998 94.6999H48.3998C48.0998 94.6999 47.7998 94.4999 47.6998 94.0999C47.6998 92.9999 47.3998 91.9999 46.8998 90.9999C46.7998 90.7999 46.8998 90.5999 47.0998 90.4999H47.1998C48.4998 90.4999 51.2998 90.3999 51.8998 90.3999H56.7998C57.2998 89.5999 57.9998 89.0999 58.7998 88.7999V85.4999C52.8998 84.7999 52.1998 79.3999 52.2998 76.1999C52.2998 74.8999 53.3998 73.7999 54.6998 73.7999H65.6998C66.9998 73.7999 68.0998 74.7999 68.0998 76.1999C68.1998 79.3999 67.4998 84.6999 61.5998 85.4999V88.7999C62.3998 89.0999 63.1998 89.6999 63.5998 90.3999H68.4998C69.0998 90.3999 71.8998 90.3999 73.1998 90.4999C73.3998 90.4999 73.5998 90.6999 73.5998 90.8999C73.8998 90.8999 73.8998 90.8999 73.8998 90.9999ZM66.2998 95.9999C66.2998 96.6999 65.8998 97.2999 65.1998 97.4999C65.0998 97.4999 64.9998 97.4999 64.8998 97.4999C63.9998 97.4999 63.9998 96.3999 62.9998 96.3999C62.0998 96.3999 61.8998 99.0999 60.4998 99.1999C60.4998 99.1999 60.4998 99.1999 60.3998 99.1999C59.0998 98.9999 58.8998 96.3999 57.9998 96.3999C57.0998 96.3999 56.9998 97.4999 56.0998 97.4999C55.9998 97.4999 55.8998 97.4999 55.7998 97.4999C55.0998 97.2999 54.6998 96.6999 54.6998 95.9999V95.1999H66.2998V95.9999ZM108.4 73.2999C104.2 71.8999 89.2998 67.9999 79.0998 79.7999C77.6998 74.5999 74.1998 70.1999 69.4998 67.6999C66.6998 66.3999 63.5998 65.6999 60.4998 65.6999C51.7998 65.3999 43.9998 71.2999 41.8998 79.7999C31.7998 68.1999 17.2998 71.6999 12.7998 73.1999C12.9998 76.9999 14.2998 80.6999 16.5998 83.7999C29.5998 101.9 47.9998 108.5 60.4998 108.7H60.6998H60.7998C60.8998 108.7 60.9998 108.7 61.0998 108.7C65.0998 108.6 68.9998 108 72.7998 106.9C85.7998 103.1 97.1998 94.8999 105 83.7999C106.9 80.7999 108.2 77.0999 108.4 73.2999Z" fill="white"/>
<path d="M66.3002 95.2002V96.0002C66.3002 96.7002 65.9002 97.3002 65.2002 97.5002C65.1002 97.5002 65.0002 97.5002 64.9002 97.5002C64.0002 97.5002 64.0002 96.4002 63.0002 96.4002C62.0002 96.4002 61.9002 99.1002 60.5002 99.2002C60.5002 99.2002 60.5002 99.2002 60.4002 99.2002C59.1002 99.0002 58.9002 96.4002 58.0002 96.4002C57.1002 96.4002 57.0002 97.5002 56.1002 97.5002C56.0002 97.5002 55.9002 97.5002 55.8002 97.5002C55.1002 97.3002 54.7002 96.7002 54.7002 96.0002V95.2002H66.3002Z" fill="#22263F"/>
<path d="M89.0003 55.7998L88.5003 51.5998C88.5003 50.8998 87.9003 50.2998 87.2003 50.2998C87.0003 50.2998 86.9003 50.2998 86.7003 50.3998C82.2003 52.0998 69.3003 57.9998 70.8003 61.7998C72.1003 64.3998 82.6003 61.5998 87.8003 57.9998C88.6003 57.5998 89.0003 56.6998 89.0003 55.7998Z" fill="#22263F"/>
<path d="M32.2998 55.7998L32.7998 51.5998C32.7998 50.8998 33.3998 50.2998 34.0998 50.2998C34.2998 50.2998 34.3998 50.2998 34.4998 50.3998C38.9998 52.0998 51.8998 57.9998 50.3998 61.7998C49.0998 64.3998 38.5998 61.5998 33.3998 57.9998C32.6998 57.5998 32.2998 56.6998 32.2998 55.7998Z" fill="#22263F"/>
<path d="M49.5999 49.0998C46.9999 48.8998 41.6999 48.3998 39.9999 47.2998C37.7999 45.8998 38.6999 39.4998 46.6999 40.3998C52.7999 41.0998 53.5999 45.2998 52.3999 47.6998C51.7999 48.6998 50.6999 49.1998 49.5999 49.0998Z" fill="white"/>
<path d="M71.7002 49.0998C74.3002 48.8998 79.6002 48.3998 81.3002 47.2998C83.5002 45.8998 82.6002 39.4998 74.6002 40.3998C68.5002 41.0998 67.7002 45.2998 68.9002 47.6998C69.4002 48.6998 70.6002 49.1998 71.7002 49.0998Z" fill="white"/>
<path d="M145.3 80.2L151.7 71.2C156.3 74.8 161.9 76.7 168 76.7C174.2 76.7 178.2 74.4 178.2 70.8C178.2 67.4 174.9 65.6 167.5 64.8C153.1 63.2 146.7 58.3 146.7 48.8C146.7 39.1 155.4 32.5 168.3 32.5C175.7 32.5 182.9 34.7 188.3 38.5L182.5 47.2C178.5 44.4 173.8 42.9 168.9 42.9C162.8 42.9 158.8 45.1 158.8 48.5C158.8 51.8 161.7 53.5 169.1 54.4C183.4 56.1 190.3 61.5 190.3 71C190.3 81 181.3 87.7 168.1 87.7C159.5 87.6 151.2 84.9 145.3 80.2Z" fill="white"/>
<path d="M234.4 65.4002V86.4002H222.6V66.1002C222.6 61.3002 220.1 58.4002 215.9 58.4002C211.2 58.4002 208.1 61.8002 208.1 66.8002V86.4002H196.3V33.7002H208.1V53.3002C210.9 50.1002 214.7 48.4002 219.5 48.4002C228.7 48.4002 234.4 55.0002 234.4 65.4002Z" fill="white"/>
<path d="M241.3 39.1001C241.3 35.3001 244.2 32.6001 248.2 32.6001C252.2 32.6001 255.1 35.3001 255.1 39.1001C255.1 42.9001 252.2 45.5001 248.2 45.5001C244.2 45.5001 241.3 42.9001 241.3 39.1001ZM242.3 49.2001H254.1V86.4001H242.3V49.2001Z" fill="white"/>
<path d="M303.6 67.8002C303.6 79.2002 296.2 87.2002 285.8 87.2002C280.8 87.2002 276.5 85.4002 273.5 82.0002L272.7 86.4002H262.5V33.7002H274.3V52.8002C277.3 50.0002 281.2 48.5002 285.8 48.5002C296.2 48.5002 303.6 56.4002 303.6 67.8002ZM282.9 77.2002C288.2 77.2002 291.8 73.4002 291.8 67.8002C291.8 62.2002 288.2 58.4002 282.9 58.4002C277.7 58.4002 274.1 62.2002 274.1 67.8002C274.1 73.4002 277.7 77.2002 282.9 77.2002Z" fill="white"/>
<path d="M307.3 80.7999C307.3 76.9999 310.2 74.3999 314.2 74.3999C318.1 74.3999 321 76.9999 321 80.7999C321 84.4999 318.1 87.1999 314.2 87.1999C310.2 87.1999 307.3 84.4999 307.3 80.7999Z" fill="white"/>
<path d="M327 39.1001C327 35.3001 329.9 32.6001 333.9 32.6001C337.9 32.6001 340.8 35.3001 340.8 39.1001C340.8 42.9001 337.9 45.5001 333.9 45.5001C329.9 45.5001 327 42.9001 327 39.1001ZM328 49.2001H339.8V86.4001H328V49.2001Z" fill="white"/>
<path d="M346 67.7999C346 56.1999 353.9 48.3999 366.4 48.3999C379 48.3999 386.9 56.1999 386.9 67.7999C386.9 79.3999 379 87.1999 366.4 87.1999C353.9 87.2999 346 79.3999 346 67.7999ZM366.4 77.1999C371.7 77.1999 375.1 73.1999 375.1 67.7999C375.1 62.3999 371.6 58.3999 366.4 58.3999C361.2 58.3999 357.7 62.3999 357.7 67.7999C357.7 73.1999 361.2 77.1999 366.4 77.1999Z" fill="white"/>
</svg>
